<svg width="1203" height="219" viewBox="0 0 1203 219" fill="none" xmlns="http://www.w3.org/2000/svg">
<g clip-path="url(#clip0_1_18131)">
<mask id="mask0_1_18131" style="mask-type:luminance" maskUnits="userSpaceOnUse" x="0" y="0" width="1203" height="219">
<path d="M1203 0H0V219H1203V0Z" fill="white"/>
</mask>
<g mask="url(#mask0_1_18131)">
<path d="M415.297 101.085V114.266C415.297 137.247 408.187 155.497 393.968 169.354C379.749 182.872 361.466 189.97 339.46 189.97C315.423 189.97 295.787 182.196 279.875 166.988C263.962 151.78 256.176 132.854 256.176 110.548C256.176 88.243 263.962 69.317 279.536 53.7707C295.11 38.2244 314.069 30.4512 336.752 30.4512C350.971 30.4512 364.175 33.8309 376.363 40.2521C388.212 46.6734 397.692 55.1225 404.124 65.5994L374.332 82.8352C370.946 77.4281 365.867 73.3722 359.435 69.9929C352.664 66.6133 345.216 64.9234 336.752 64.9234C323.548 64.9234 313.053 69.317 304.25 77.7661C295.787 86.5531 291.386 97.368 291.386 110.886C291.386 124.067 295.787 135.22 304.589 143.331C313.392 151.78 325.241 155.835 339.799 155.835C360.112 155.835 373.316 148.062 379.071 132.178H338.106V101.423L415.297 101.085Z" fill="#121235"/>
<path d="M458.97 145.019C462.694 155.158 471.496 160.227 485.377 160.227C494.179 160.227 501.289 157.524 506.368 151.778L532.775 166.987C521.941 182.195 506.029 189.63 484.7 189.63C466.08 189.63 451.522 184.223 440.349 173.07C429.177 162.255 423.76 148.399 423.76 131.501C423.76 114.94 429.177 101.084 440.011 90.269C450.845 79.1161 465.064 73.709 481.992 73.709C497.903 73.709 511.107 79.1161 521.941 90.269C532.436 101.422 537.853 114.94 537.853 131.501C537.853 136.232 537.514 140.626 536.499 144.681L458.97 145.019ZM458.292 120.348H505.691C502.305 108.857 494.857 103.112 482.33 103.112C469.465 103.112 461.34 108.857 458.292 120.348Z" fill="#121235"/>
<path d="M588.298 108.857C588.298 110.885 590.329 112.913 594.053 114.264C597.778 115.616 602.179 116.968 607.596 118.32C613.012 119.672 618.091 121.362 623.508 123.727C628.925 125.755 633.326 129.473 637.05 134.542C640.775 139.612 642.806 146.033 642.806 153.468C642.806 165.297 638.405 174.422 629.602 180.505C620.8 186.589 609.966 189.63 597.101 189.63C574.079 189.63 558.167 180.843 549.703 163.607L578.142 147.385C581.189 156.172 587.283 160.227 596.762 160.227C604.549 160.227 608.611 157.862 608.611 153.468C608.611 151.44 606.58 149.413 602.856 148.061C599.132 146.709 594.731 145.019 589.314 143.667C583.897 142.315 578.819 140.288 573.401 138.26C567.985 135.894 563.584 132.514 559.86 127.783C556.135 123.052 554.104 116.968 554.104 109.871C554.104 98.3801 558.167 89.5931 566.631 83.172C574.756 76.7509 585.251 73.709 597.439 73.709C606.58 73.709 614.705 75.7369 622.154 79.7921C629.602 83.848 635.696 89.5931 640.098 97.3661L611.997 112.575C608.611 106.153 603.533 102.774 597.439 102.774C591.345 102.774 588.298 104.802 588.298 108.857Z" fill="#121235"/>
<path d="M725.413 76.7598H761.977L721.35 186.598H684.109L643.482 76.7598H680.047L703.068 146.38L725.413 76.7598Z" fill="#121235"/>
<path d="M804.632 61.5424C800.913 65.26 796.167 67.2877 790.754 67.2877C785.34 67.2877 780.594 65.26 776.875 61.5424C773.149 57.8248 771.117 53.0933 771.117 47.6859C771.117 42.2785 773.149 37.547 776.875 33.8294C780.594 30.1118 785.34 28.084 790.754 28.084C796.167 28.084 800.913 30.1118 804.632 33.8294C808.359 37.547 810.391 42.2785 810.391 47.6859C810.391 52.7553 808.359 57.4868 804.632 61.5424ZM774.161 186.589V76.751H807.002V186.589H774.161Z" fill="#121235"/>
<path d="M856.773 108.857C856.773 110.885 858.804 112.913 862.531 114.264C866.25 115.616 870.651 116.968 876.072 118.32C881.485 119.672 886.569 121.362 891.982 123.727C897.396 125.755 901.797 129.473 905.523 134.542C909.25 139.612 911.282 146.033 911.282 153.468C911.282 165.297 906.88 174.422 898.078 180.505C889.276 186.589 878.441 189.63 865.575 189.63C842.557 189.63 826.639 180.843 818.174 163.607L846.613 147.385C849.665 156.172 855.76 160.227 865.238 160.227C873.02 160.227 877.084 157.862 877.084 153.468C877.084 151.44 875.052 149.413 871.333 148.061C867.607 146.709 863.206 145.019 857.785 143.667C852.371 142.315 847.295 140.288 841.874 138.26C836.461 135.894 832.06 132.514 828.333 127.783C824.607 123.052 822.575 116.968 822.575 109.871C822.575 98.3801 826.639 89.5931 835.104 83.172C843.231 76.7509 853.728 73.709 865.912 73.709C875.052 73.709 883.18 75.7369 890.625 79.7921C898.078 83.848 904.174 89.5931 908.575 97.3661L880.473 112.575C877.084 106.153 872.008 102.774 865.912 102.774C860.161 102.774 856.773 104.802 856.773 108.857Z" fill="#121235"/>
<path d="M953.599 61.5424C949.873 65.26 945.134 67.2877 939.721 67.2877C934.3 67.2877 929.561 65.26 925.835 61.5424C922.116 57.8248 920.084 53.0933 920.084 47.6859C920.084 42.2785 922.116 37.547 925.835 33.8294C929.561 30.1118 934.3 28.084 939.721 28.084C945.134 28.084 949.873 30.1118 953.599 33.8294C957.326 37.547 959.358 42.2785 959.358 47.6859C959.358 52.7553 957.326 57.4868 953.599 61.5424ZM923.128 186.589V76.751H955.969V186.589H923.128Z" fill="#121235"/>
<path d="M1065.32 172.728C1054.15 183.881 1040.27 189.626 1024.02 189.626C1007.77 189.626 993.883 183.881 982.712 172.728C971.54 161.576 965.789 147.719 965.789 131.497C965.789 115.275 971.54 101.418 982.712 90.2652C993.883 79.113 1007.77 73.3672 1024.02 73.3672C1040.27 73.3672 1054.15 79.113 1065.32 90.2652C1076.49 101.418 1082.25 115.275 1082.25 131.497C1082.25 148.057 1076.83 161.576 1065.32 172.728ZM1006.07 150.423C1010.81 155.154 1016.91 157.52 1024.02 157.52C1031.13 157.52 1037.22 155.154 1041.96 150.423C1046.7 145.691 1049.07 139.27 1049.07 131.835C1049.07 124.4 1046.7 117.978 1041.96 113.247C1037.22 108.515 1031.13 106.15 1024.02 106.15C1016.91 106.15 1010.81 108.515 1006.07 113.247C1001.34 117.978 998.967 124.4 998.967 131.835C998.967 139.27 1001.34 145.691 1006.07 150.423Z" fill="#121235"/>
<path d="M1156.73 75.709C1168.58 75.709 1178.06 79.7641 1186.19 87.8759C1193.97 95.9869 1198.03 107.139 1198.03 121.334V188.589H1165.19V126.065C1165.19 119.644 1163.5 114.575 1159.78 111.195C1156.05 107.815 1151.65 106.126 1145.89 106.126C1139.46 106.126 1134.72 108.153 1131 111.871C1127.28 115.589 1125.58 121.334 1125.58 128.769V188.589H1092.74V78.7509H1125.58V89.2271C1131.68 80.4401 1142.18 75.709 1156.73 75.709Z" fill="#121235"/>
<path d="M138.698 109.505C128.541 109.505 120.416 101.394 120.416 91.2548C120.416 85.8469 122.786 81.1158 126.51 77.7359C121.432 75.0327 115.676 73.3428 109.582 73.3428C89.6072 73.3428 73.6953 89.5648 73.6953 109.167C73.6953 128.769 89.9461 145.667 109.582 145.667C129.218 145.667 145.469 129.445 145.469 109.843C145.469 109.505 145.469 108.829 145.469 108.491C143.438 109.167 141.068 109.505 138.698 109.505Z" fill="url(#paint0_linear_1_18131)"/>
<path d="M172.212 73.3428H161.039C168.148 83.4817 172.55 95.9859 172.55 109.505C172.55 143.977 144.788 172.028 110.594 172.366H110.256C109.917 172.366 109.917 172.366 109.578 172.366C109.578 172.366 109.578 172.366 109.24 172.366C108.901 172.366 108.901 172.366 108.563 172.366H4.96484V213.935H108.563C137.679 213.935 164.086 202.107 183.045 183.181C202.004 164.255 213.854 137.894 213.854 108.829V73.3428H172.212Z" fill="url(#paint1_linear_1_18131)"/>
<path d="M110.595 5.07617C81.4799 5.07617 55.0723 16.9049 36.1132 35.8308C17.1541 54.7567 5.30469 81.118 5.30469 110.183V145.669H58.4579C51.0096 135.53 46.6084 122.687 46.6084 109.169C46.6084 75.0342 74.7086 46.6456 109.58 46.6456H109.918C110.257 46.6456 110.257 46.6456 110.595 46.6456H213.855V5.07617H110.595Z" fill="url(#paint2_linear_1_18131)"/>
</g>
</g>
<defs>
<linearGradient id="paint0_linear_1_18131" x1="73.5508" y1="109.543" x2="145.492" y2="109.543" gradientUnits="userSpaceOnUse">
<stop stop-color="#F85BB0"/>
<stop offset="1" stop-color="#7576FD"/>
</linearGradient>
<linearGradient id="paint1_linear_1_18131" x1="4.96484" y1="143.678" x2="213.854" y2="143.678" gradientUnits="userSpaceOnUse">
<stop stop-color="#55BDFA"/>
<stop offset="1" stop-color="#8150FE"/>
</linearGradient>
<linearGradient id="paint2_linear_1_18131" x1="5.30469" y1="75.4123" x2="214.128" y2="75.4123" gradientUnits="userSpaceOnUse">
<stop stop-color="#FB38D8"/>
<stop offset="1" stop-color="#FDB917"/>
</linearGradient>
<clipPath id="clip0_1_18131">
<rect width="1203" height="219" fill="white"/>
</clipPath>
</defs>
</svg>
